# Blender v2.79 (sub 0) OBJ File: '1D_U.obj'
# www.blender.org
mtllib 2D_U.mtl
o SketchUp_ID3.003
v -2.500000 -1.800001 7.543306
v -2.500000 -1.799999 -7.770000
v -2.500000 13.200000 -7.769998
v -2.500000 13.199998 7.543309
v 2.500000 -1.799999 -7.770000
v -2.500000 -1.799999 -7.770000
v -2.500000 -1.800001 7.543306
v 2.500000 -1.800001 7.543306
v 2.500000 8.051207 7.543308
v 2.500000 8.051208 -7.769999
v 2.500000 -1.799999 -7.770000
v 2.500000 -1.800001 7.543306
vn 1.0000 0.0000 0.0000
vn 0.0000 1.0000 0.0000
vn -1.0000 0.0000 0.0000
usemtl None
s 1
f 1//1 2//1 3//1 4//1
f 5//2 6//2 7//2 8//2
f 9//3 10//3 11//3 12//3
o SketchUp.005_ID25.000
v -2.612385 8.697459 -23.469854
v -2.612385 8.697459 -23.497755
o SketchUp.004_ID31.001
v -2.612385 8.697459 -23.469854
v -2.612385 8.697459 -23.497755
o SketchUp.008_ID31.000
v -2.612385 8.697459 -23.469854
v -2.612385 8.697459 -23.497755
o SketchUp.005_ID25.001
v -1.038030 8.697459 -23.591972
v -1.036165 8.697459 -23.619810
o SketchUp.004_ID31
v -1.038030 8.697459 -23.591972
v -1.036165 8.697459 -23.619810
o SketchUp.008_ID31.001
v -1.038030 8.697459 -23.591972
v -1.036165 8.697459 -23.619810
