# Blender 3.5.1
# www.blender.org
mtllib test.mtl
o Cube
v -13.453613 0.000000 12.029221
v -13.453613 0.142706 12.029221
v -13.453613 0.000000 -14.577106
v -13.453613 0.142706 -14.577106
v 18.027460 0.000000 12.029221
v 18.027460 0.142706 12.029221
v 18.027460 0.000000 -14.577106
v 18.027460 0.142706 -14.577106
vn -1.0000 -0.0000 -0.0000
vn -0.0000 -0.0000 -1.0000
vn 1.0000 -0.0000 -0.0000
vn -0.0000 -0.0000 1.0000
vn -0.0000 -1.0000 -0.0000
vn -0.0000 1.0000 -0.0000
vt 0.375000 0.000000
vt 0.375000 1.000000
vt 0.125000 0.750000
vt 0.625000 0.000000
vt 0.625000 1.000000
vt 0.875000 0.750000
vt 0.125000 0.500000
vt 0.375000 0.250000
vt 0.625000 0.250000
vt 0.875000 0.500000
vt 0.375000 0.750000
vt 0.625000 0.750000
vt 0.375000 0.500000
vt 0.625000 0.500000
s 0
usemtl Amarillo
f 2/4/1 3/8/1 1/1/1
f 4/9/2 7/13/2 3/8/2
f 8/14/3 5/11/3 7/13/3
f 6/12/4 1/2/4 5/11/4
f 7/13/5 1/3/5 3/7/5
f 4/10/6 6/12/6 8/14/6
f 2/4/1 4/9/1 3/8/1
f 4/9/2 8/14/2 7/13/2
f 8/14/3 6/12/3 5/11/3
f 6/12/4 2/5/4 1/2/4
f 7/13/5 5/11/5 1/3/5
f 4/10/6 2/6/6 6/12/6
o Cube.001
v -13.453613 0.142706 12.029221
v -13.453613 9.114024 12.029221
v -13.453613 0.142706 4.930111
v -13.453613 9.114024 4.930111
v -3.378483 0.142706 12.029221
v -3.378483 9.114024 12.029221
v -3.378483 0.142706 4.930111
v -3.378483 9.114024 4.930111
vn -1.0000 -0.0000 -0.0000
vn -0.0000 -0.0000 -1.0000
vn 1.0000 -0.0000 -0.0000
vn -0.0000 -0.0000 1.0000
vn -0.0000 -1.0000 -0.0000
vn -0.0000 1.0000 -0.0000
vt 0.375000 0.000000
vt 0.375000 1.000000
vt 0.125000 0.750000
vt 0.625000 0.000000
vt 0.625000 1.000000
vt 0.875000 0.750000
vt 0.125000 0.500000
vt 0.375000 0.250000
vt 0.625000 0.250000
vt 0.875000 0.500000
vt 0.375000 0.750000
vt 0.625000 0.750000
vt 0.375000 0.500000
vt 0.625000 0.500000
s 0
usemtl Amarillo
f 10/18/7 11/22/7 9/15/7
f 12/23/8 15/27/8 11/22/8
f 16/28/9 13/25/9 15/27/9
f 14/26/10 9/16/10 13/25/10
f 15/27/11 9/17/11 11/21/11
f 12/24/12 14/26/12 16/28/12
f 10/18/7 12/23/7 11/22/7
f 12/23/8 16/28/8 15/27/8
f 16/28/9 14/26/9 13/25/9
f 14/26/10 10/19/10 9/16/10
f 15/27/11 13/25/11 9/17/11
f 12/24/12 10/20/12 14/26/12
o Cube.002
v -13.453613 0.142709 4.783472
v -13.453613 9.051883 4.783472
v -13.453613 0.142709 -14.498562
v -13.453613 9.051883 -14.498562
v -13.182987 0.142709 4.783472
v -13.182987 9.051883 4.783472
v -13.182987 0.142709 -14.498562
v -13.182987 9.051883 -14.498562
vn -1.0000 -0.0000 -0.0000
vn -0.0000 -0.0000 -1.0000
vn 1.0000 -0.0000 -0.0000
vn -0.0000 -0.0000 1.0000
vn -0.0000 -1.0000 -0.0000
vn -0.0000 1.0000 -0.0000
vt 0.375000 0.000000
vt 0.375000 1.000000
vt 0.125000 0.750000
vt 0.625000 0.000000
vt 0.625000 1.000000
vt 0.875000 0.750000
vt 0.125000 0.500000
vt 0.375000 0.250000
vt 0.625000 0.250000
vt 0.875000 0.500000
vt 0.375000 0.750000
vt 0.625000 0.750000
vt 0.375000 0.500000
vt 0.625000 0.500000
s 0
usemtl Rojo
f 18/32/13 19/36/13 17/29/13
f 20/37/14 23/41/14 19/36/14
f 24/42/15 21/39/15 23/41/15
f 22/40/16 17/30/16 21/39/16
f 23/41/17 17/31/17 19/35/17
f 20/38/18 22/40/18 24/42/18
f 18/32/13 20/37/13 19/36/13
f 20/37/14 24/42/14 23/41/14
f 24/42/15 22/40/15 21/39/15
f 22/40/16 18/33/16 17/30/16
f 23/41/17 21/39/17 17/31/17
f 20/38/18 18/34/18 22/40/18
o Icosphere
v 8.551081 15.842710 1.297924
v 9.448957 16.528618 1.950262
v 8.208129 16.528618 2.353439
v 7.441246 16.528624 1.297924
v 8.208129 16.528618 0.242409
v 9.448957 16.528618 0.645586
v 8.894032 17.638470 2.353439
v 7.653203 17.638470 1.950262
v 7.653203 17.638470 0.645586
v 8.894032 17.638470 0.242409
v 9.660915 17.638464 1.297924
v 8.551081 18.324379 1.297924
v 8.349501 16.028023 1.918335
v 9.078835 16.028023 1.681356
v 8.877257 16.431190 2.301774
v 9.606594 16.431192 1.297924
v 9.078835 16.028023 0.914492
v 7.898737 16.028027 1.297924
v 7.697151 16.431192 1.918338
v 8.349501 16.028023 0.677513
v 7.697151 16.431192 0.677511
v 8.877257 16.431190 0.294075
v 9.731186 17.083544 1.681358
v 9.731186 17.083544 0.914491
v 8.551081 17.083544 2.538759
v 9.280425 17.083544 2.301780
v 7.370975 17.083544 1.681358
v 7.821736 17.083544 2.301780
v 7.821736 17.083544 0.294068
v 7.370975 17.083544 0.914491
v 9.280425 17.083544 0.294068
v 8.551081 17.083544 0.057090
v 9.405010 17.735895 1.918338
v 8.224904 17.735897 2.301774
v 7.495567 17.735895 1.297924
v 8.224904 17.735897 0.294075
v 9.405010 17.735895 0.677511
v 8.752661 18.139065 1.918335
v 9.203424 18.139061 1.297924
v 8.023326 18.139065 1.681356
v 8.023326 18.139065 0.914492
v 8.752661 18.139065 0.677513
vn 0.1024 -0.9435 0.3151
vn 0.7002 -0.6617 0.2680
vn -0.2680 -0.9435 0.1947
vn -0.2680 -0.9435 -0.1947
vn 0.1024 -0.9435 -0.3151
vn 0.9050 -0.3304 0.2680
vn 0.0247 -0.3304 0.9435
vn -0.8897 -0.3304 0.3151
vn -0.5746 -0.3304 -0.7488
vn 0.5346 -0.3304 -0.7779
vn 0.8026 -0.1256 0.5831
vn -0.3066 -0.1256 0.9435
vn -0.9921 -0.1256 -0.0000
vn -0.3066 -0.1256 -0.9435
vn 0.8026 -0.1256 -0.5831
vn 0.4089 0.6617 0.6284
vn -0.4713 0.6617 0.5831
vn -0.7002 0.6617 -0.2680
vn 0.0385 0.6617 -0.7488
vn 0.7240 0.6617 -0.1947
vn 0.2680 0.9435 -0.1947
vn 0.4911 0.7947 -0.3568
vn 0.4089 0.6617 -0.6284
vn -0.1024 0.9435 -0.3151
vn -0.1876 0.7947 -0.5773
vn -0.4713 0.6617 -0.5831
vn -0.3313 0.9435 -0.0000
vn -0.6071 0.7947 -0.0000
vn -0.7002 0.6617 0.2680
vn -0.1024 0.9435 0.3151
vn -0.1876 0.7947 0.5773
vn 0.0385 0.6617 0.7488
vn 0.2680 0.9435 0.1947
vn 0.4911 0.7947 0.3568
vn 0.7240 0.6617 0.1947
vn 0.8897 0.3304 -0.3151
vn 0.7947 0.1876 -0.5773
vn 0.5746 0.3304 -0.7488
vn -0.0247 0.3304 -0.9435
vn -0.3035 0.1876 -0.9342
vn -0.5346 0.3304 -0.7779
vn -0.9050 0.3304 -0.2680
vn -0.9822 0.1876 -0.0000
vn -0.9050 0.3304 0.2680
vn -0.5346 0.3304 0.7779
vn -0.3035 0.1876 0.9342
vn -0.0247 0.3304 0.9435
vn 0.5746 0.3304 0.7488
vn 0.7947 0.1876 0.5773
vn 0.8897 0.3304 0.3151
vn 0.3066 0.1256 -0.9435
vn 0.3035 -0.1876 -0.9342
vn 0.0247 -0.3304 -0.9435
vn -0.8026 0.1256 -0.5831
vn -0.7947 -0.1876 -0.5773
vn -0.8897 -0.3304 -0.3151
vn -0.8026 0.1256 0.5831
vn -0.7947 -0.1876 0.5773
vn -0.5746 -0.3304 0.7488
vn 0.3066 0.1256 0.9435
vn 0.3035 -0.1876 0.9342
vn 0.5346 -0.3304 0.7779
vn 0.9921 0.1256 -0.0000
vn 0.9822 -0.1876 -0.0000
vn 0.9050 -0.3304 -0.2680
vn 0.4713 -0.6617 -0.5831
vn 0.1876 -0.7947 -0.5773
vn -0.0385 -0.6617 -0.7488
vn -0.4089 -0.6617 -0.6284
vn -0.4911 -0.7947 -0.3568
vn -0.7240 -0.6617 -0.1947
vn -0.7240 -0.6617 0.1947
vn -0.4911 -0.7947 0.3568
vn -0.4089 -0.6617 0.6284
vn 0.7002 -0.6617 -0.2680
vn 0.6071 -0.7947 -0.0000
vn 0.3313 -0.9435 -0.0000
vn -0.0385 -0.6617 0.7488
vn 0.1876 -0.7947 0.5773
vn 0.4713 -0.6617 0.5831
vt 0.181819 0.000000
vt 0.909091 0.000000
vt 0.727273 0.000000
vt 0.545455 0.000000
vt 0.363637 0.000000
vt 0.272728 0.157461
vt 1.000000 0.157461
vt 0.090910 0.157461
vt 0.818182 0.157461
vt 0.636364 0.157461
vt 0.454546 0.157461
vt 0.181819 0.314921
vt 0.000000 0.314921
vt 0.909091 0.314921
vt 0.727273 0.314921
vt 0.545455 0.314921
vt 0.363637 0.314921
vt 0.454546 0.472382
vt 0.636364 0.472382
vt 0.818182 0.472382
vt 0.090910 0.472382
vt 0.272728 0.472382
vt 0.954545 0.078731
vt 0.136365 0.078731
vt 0.318182 0.078731
vt 0.227273 0.078731
vt 0.181819 0.157461
vt 0.363637 0.157461
vt 0.500000 0.078731
vt 0.409092 0.078731
vt 0.772727 0.078731
vt 0.863636 0.078731
vt 0.909091 0.157461
vt 0.590909 0.078731
vt 0.681818 0.078731
vt 0.727273 0.157461
vt 0.545455 0.157461
vt 0.318182 0.236191
vt 0.409092 0.236191
vt 0.136365 0.236191
vt 0.227273 0.236191
vt 0.863636 0.236191
vt 0.045455 0.236191
vt 0.954545 0.236191
vt 0.681818 0.236191
vt 0.772727 0.236191
vt 0.500000 0.236191
vt 0.590909 0.236191
vt 0.272728 0.314921
vt 0.090910 0.314921
vt 0.818182 0.314921
vt 0.636364 0.314921
vt 0.454546 0.314921
vt 0.136365 0.393651
vt 0.227273 0.393651
vt 0.409092 0.393651
vt 0.318182 0.393651
vt 0.863636 0.393651
vt 0.045455 0.393651
vt 0.681818 0.393651
vt 0.772727 0.393651
vt 0.500000 0.393651
vt 0.590909 0.393651
s 0
usemtl Luz
f 25/43/19 38/68/19 37/66/19
f 26/48/20 38/67/20 40/70/20
f 25/44/21 37/65/21 42/74/21
f 25/45/22 42/73/22 44/77/22
f 25/46/23 44/76/23 41/71/23
f 26/48/24 40/70/24 47/80/24
f 27/50/25 39/69/25 49/82/25
f 28/51/26 43/75/26 51/84/26
f 29/52/27 45/78/27 53/87/27
f 30/53/28 46/79/28 55/89/28
f 26/48/29 47/80/29 50/83/29
f 27/50/30 49/82/30 52/85/30
f 28/51/31 51/84/31 54/88/31
f 29/52/32 53/87/32 56/90/32
f 30/53/33 55/89/33 48/81/33
f 31/54/34 57/91/34 62/97/34
f 32/55/35 58/92/35 64/101/35
f 33/57/36 59/93/36 65/103/36
f 34/58/37 60/94/37 66/105/37
f 35/59/38 61/95/38 63/98/38
f 63/98/39 66/104/39 36/60/39
f 63/98/40 61/95/40 66/104/40
f 61/95/41 34/58/41 66/104/41
f 66/105/42 65/102/42 36/61/42
f 66/105/43 60/94/43 65/102/43
f 60/94/44 33/57/44 65/102/44
f 65/103/45 64/100/45 36/62/45
f 65/103/46 59/93/46 64/100/46
f 59/93/47 32/56/47 64/100/47
f 64/101/48 62/96/48 36/63/48
f 64/101/49 58/92/49 62/96/49
f 58/92/50 31/54/50 62/96/50
f 62/97/51 63/99/51 36/64/51
f 62/97/52 57/91/52 63/99/52
f 57/91/53 35/59/53 63/99/53
f 48/81/54 61/95/54 35/59/54
f 48/81/55 55/89/55 61/95/55
f 55/89/56 34/58/56 61/95/56
f 56/90/57 60/94/57 34/58/57
f 56/90/58 53/87/58 60/94/58
f 53/87/59 33/57/59 60/94/59
f 54/88/60 59/93/60 33/57/60
f 54/88/61 51/84/61 59/93/61
f 51/84/62 32/56/62 59/93/62
f 52/85/63 58/92/63 32/55/63
f 52/85/64 49/82/64 58/92/64
f 49/82/65 31/54/65 58/92/65
f 50/83/66 57/91/66 31/54/66
f 50/83/67 47/80/67 57/91/67
f 47/80/68 35/59/68 57/91/68
f 55/89/69 56/90/69 34/58/69
f 55/89/70 46/79/70 56/90/70
f 46/79/71 29/52/71 56/90/71
f 53/87/72 54/88/72 33/57/72
f 53/87/73 45/78/73 54/88/73
f 45/78/74 28/51/74 54/88/74
f 51/84/75 52/86/75 32/56/75
f 51/84/76 43/75/76 52/86/76
f 43/75/77 27/49/77 52/86/77
f 49/82/78 50/83/78 31/54/78
f 49/82/79 39/69/79 50/83/79
f 39/69/80 26/48/80 50/83/80
f 47/80/81 48/81/81 35/59/81
f 47/80/82 40/70/82 48/81/82
f 40/70/83 30/53/83 48/81/83
f 41/71/84 46/79/84 30/53/84
f 41/71/85 44/76/85 46/79/85
f 44/76/86 29/52/86 46/79/86
f 44/77/87 45/78/87 29/52/87
f 44/77/88 42/73/88 45/78/88
f 42/73/89 28/51/89 45/78/89
f 42/74/90 43/75/90 28/51/90
f 42/74/91 37/65/91 43/75/91
f 37/65/92 27/49/92 43/75/92
f 40/70/93 41/72/93 30/53/93
f 40/70/94 38/67/94 41/72/94
f 38/67/95 25/47/95 41/72/95
f 37/66/96 39/69/96 27/50/96
f 37/66/97 38/68/97 39/69/97
f 38/68/98 26/48/98 39/69/98
