# Blender 4.0.1
# www.blender.org
mtllib caja.mtl
o Cube
v -30.000000 -29.999998 30.000002
v -30.000000 30.000002 29.999998
v -30.000000 -30.000002 -29.999998
v -30.000000 29.999998 -30.000002
v 30.000000 -29.999998 30.000002
v 30.000000 30.000002 29.999998
v 30.000000 -30.000002 -29.999998
v 30.000000 29.999998 -30.000002
v -25.843077 -25.843075 25.843079
v -25.843077 25.843079 25.843075
v -25.843077 -25.843079 -25.843075
v -25.843077 25.843075 -25.843079
v 25.843077 -25.843075 25.843079
v 25.843077 25.843079 25.843075
v 25.843077 -25.843079 -25.843075
v 25.843077 25.843075 -25.843079
vn -1.0000 -0.0000 -0.0000
vn -0.0000 -0.0000 -1.0000
vn 1.0000 -0.0000 -0.0000
vn -0.0000 -0.0000 1.0000
vn -0.0000 -1.0000 -0.0000
vn -0.0000 1.0000 -0.0000
vt 0.625000 0.000000
vt 0.375000 0.250000
vt 0.375000 0.000000
vt 0.625000 0.250000
vt 0.375000 0.500000
vt 0.625000 0.500000
vt 0.375000 0.750000
vt 0.625000 0.750000
vt 0.375000 1.000000
vt 0.125000 0.750000
vt 0.125000 0.500000
vt 0.875000 0.500000
vt 0.625000 1.000000
vt 0.875000 0.750000
s 0
usemtl Material.001
f 2/1/1 3/2/1 1/3/1
f 4/4/2 7/5/2 3/2/2
f 8/6/3 5/7/3 7/5/3
f 6/8/4 1/9/4 5/7/4
f 7/5/5 1/10/5 3/11/5
f 4/12/6 6/8/6 8/6/6
f 11/2/3 10/1/3 9/3/3
f 15/5/4 12/4/4 11/2/4
f 13/7/1 16/6/1 15/5/1
f 9/9/2 14/8/2 13/7/2
f 9/10/6 15/5/6 11/11/6
f 14/8/5 12/12/5 16/6/5
f 2/1/1 4/4/1 3/2/1
f 4/4/2 8/6/2 7/5/2
f 8/6/3 6/8/3 5/7/3
f 6/8/4 2/13/4 1/9/4
f 7/5/5 5/7/5 1/10/5
f 4/12/6 2/14/6 6/8/6
f 11/2/3 12/4/3 10/1/3
f 15/5/4 16/6/4 12/4/4
f 13/7/1 14/8/1 16/6/1
f 9/9/2 10/13/2 14/8/2
f 9/10/6 13/7/6 15/5/6
f 14/8/5 10/14/5 12/12/5
