# Blender 3.5.1
# www.blender.org
mtllib planaso2.mtl
o Plane
v -10.000000 0.000001 10.000000
v 10.000000 0.000001 10.000000
v -10.000000 -0.000001 -10.000000
v 10.000000 -0.000001 -10.000000
vn -0.0000 1.0000 -0.0000
vt 0.000000 0.000000
vt 1.000000 0.000000
vt 0.000000 1.000000
vt 1.000000 1.000000
s 0
usemtl red
f 2/2/1 3/3/1 1/1/1
f 2/2/1 4/4/1 3/3/1
o Plane.001
v -10.000000 4.030976 10.000000
v 10.000000 4.030976 10.000000
v -10.000000 4.030974 -10.000000
v 10.000000 4.030974 -10.000000
vn -0.0000 1.0000 -0.0000
vt 0.000000 0.000000
vt 1.000000 0.000000
vt 0.000000 1.000000
vt 1.000000 1.000000
s 0
usemtl blue
f 6/6/2 7/7/2 5/5/2
f 6/6/2 8/8/2 7/7/2
